<?xml version="1.0" encoding="utf-8"?>
<!-- Generator: Adobe Illustrator 25.2.1, SVG Export Plug-In . SVG Version: 6.00 Build 0)  -->
<svg version="1.1" id="Capa_1" xmlns="http://www.w3.org/2000/svg" xmlns:xlink="http://www.w3.org/1999/xlink" x="0px" y="0px"
	 viewBox="0 0 627 626" style="enable-background:new 0 0 627 626;" xml:space="preserve">
<style type="text/css">
	.st0{fill:#00AAFF;}
	.st1{fill:#343843;fill-opacity:5.000000e-02;}
	.st2{fill:#FCFEFF;}
	.st3{fill:#ECFAFF;}
</style>
<path class="st0" d="M254.3,615.8L133.1,442.7l27.5-155.8L281.8,460L254.3,615.8z"/>
<path class="st0" d="M434.5,353.1L313.3,180l155.8,27.5l121.2,173.1L434.5,353.1z"/>
<path class="st0" d="M433.9,293.7c17.6,45.2,25.8,87.8,24.5,123.2c-25.8,4.9-50.3,15.2-71.8,30.2s-39.6,34.6-53,57.2
	c-33.7-10.9-70.9-33.2-107.5-65.1c9.3-46.3,36.2-87.2,75-114.1C341.6,296.7,389.4,286.8,433.9,293.7z"/>
<path class="st1" d="M226.2,439.2c36.5,32,73.7,54.3,107.4,65.2c12.9-21.8,30.8-41.4,53.1-57l-85.6-122.2
	C260.6,353.5,234.9,395,226.2,439.2z"/>
<path class="st0" d="M68.8,153C60.2,76.4,72.2,14.9,80.1,9.4c7.8-5.5,69.7,4.2,138.8,38.5c-32,3-62.6,14.3-88.9,32.8
	C102.5,100,81.9,125,68.8,153z"/>
<path class="st1" d="M68.8,153C60.2,76.4,72.2,14.9,80.1,9.4L130,80.7C102.5,100,81.9,125,68.8,153z"/>
<path class="st2" d="M218.9,47.9c52.3,25.9,108.8,65.9,149.4,123.9c28.4,40.6,50.5,82.3,65.6,121.9c-46.7-7.1-94.2,4.2-132.8,31.4
	c-40.5,28.4-66.2,69.9-74.9,114.1c-32.2-27.7-63.6-62.7-92.1-103.3C93.5,277.8,75.2,211,68.8,153c13.8-29,34.9-53.9,61.2-72.3
	C157.5,61.5,188,50.7,218.9,47.9z"/>
<path class="st3" d="M68.8,153c6.5,58,24.7,124.8,65.3,182.8c28.4,40.6,60,75.6,92.1,103.3c9.3-46.3,36.2-87.1,74.9-114.1L130,80.7
	C102.5,100,81.9,125,68.8,153z"/>
<path class="st0" d="M233.4,152.5c-13.8-19.7-40.9-24.5-60.6-10.7c-19.7,13.8-24.5,40.9-10.7,60.6c13.8,19.7,40.9,24.5,60.6,10.7
	C242.4,199.3,247.1,172.2,233.4,152.5z"/>
<path class="st1" d="M222.7,213.1l-49.9-71.3c-9.5,6.6-15.9,16.7-17.9,28.1c-2,11.4,0.6,23.1,7.2,32.5c6.6,9.5,16.7,15.9,28.1,17.9
	C201.5,222.3,213.2,219.7,222.7,213.1z"/>
<path class="st0" d="M400.9,467.6c-102.2,71.6,78.4,112,85.6,122.2C479.3,579.6,503.1,396.1,400.9,467.6z"/>
</svg>
