<svg id="Capa_3" data-name="Capa 3" xmlns="http://www.w3.org/2000/svg" width="867.29" height="156.49" viewBox="0 0 867.29 156.49">
  <defs>
    <style>
      .cls-1 {
        fill: #FFFFFF;
      }

      .cls-2 {
        fill: #01abfe;
      }
    </style>
  </defs>
  <g>
    <path class="cls-1" d="M353.74,151.05q-13.07-41.46-26.14-82.92l-1.22-.24c-9.49,28.81-19,57.62-28.56,86.67-13.9,0-27.71-.11-41.51.08-3.59.05-3.46-2.56-4.1-4.53q-13.62-41.69-27.08-83.41Q216.75,40.87,208.37,15c-.61-1.86-1.06-3.77-1.69-6H249l29.28,92.63c3.91-11.76,7.36-22.12,10.81-32.48,6.23-18.76,12.55-37.5,18.58-56.32,1.07-3.34,2.55-4.27,5.93-4.19,11,.23,22,.08,33.36.08q3.74,11.94,7.42,23.75c5.9,18.87,11.88,37.71,17.61,56.62a13.88,13.88,0,0,1,.05,7.64c-5.62,18.08-11.5,36.08-17.29,54.1Z" transform="translate(-0.31 -0.22)"/>
    <path class="cls-1" d="M590.82,50.92C610,36.52,629.55,36.45,649,46.28c20,10.14,28.41,28.11,28.82,50C678.22,119.48,670,138.38,649,150c-13.58,7.5-28.3,8.58-43,4.05-5.69-1.75-10.78-5.49-16.46-8.5-.15,2.41-.34,5.54-.54,8.79h-37.1V.22h39Zm47.23,47-.36,0c0-1.5.12-3,0-4.49-1.21-12.39-9.86-21.24-21.33-21.87-13.17-.73-22.77,6.35-25.08,19.15a44.68,44.68,0,0,0-.17,13.9c1.71,12.13,10.61,20,22.23,20.28,12.35.32,21-6.61,23.73-19.06C637.61,103.18,637.73,100.51,638.05,97.88Z" transform="translate(-0.31 -0.22)"/>
    <path class="cls-1" d="M125.94,115.53v38.76H85.07V8.92c1.11-.09,2.21-.26,3.31-.26,24.79,0,49.59-.1,74.38,0,25.5.11,48.48,18.74,52.4,42.25,5.3,31.73-11.91,56.49-43.91,62.5-7.63,1.43-15.51,1.68-23.3,2C140.85,115.79,133.72,115.53,125.94,115.53Zm.35-33c10,0,19.66.55,29.21-.14,11.43-.83,18.32-8.29,18.8-18.86.55-12.35-4.76-20.5-16.69-22-10.21-1.32-20.73-.28-31.32-.28Z" transform="translate(-0.31 -0.22)"/>
    <path class="cls-1" d="M547.31,108.12H466.22c1.13,16.51,31.41,26.52,51.85,9.41l22.21,19.75a45.47,45.47,0,0,1-21.7,14.91c-19.14,6.28-38.37,6.13-57.15-1.33-25.07-10-37.8-31.91-35.5-60.1,1.89-23.18,20.28-43.75,44.66-49,22.87-4.92,44.22-1.73,61.59,15.35C546.34,71.05,549.39,88.65,547.31,108.12Zm-36.92-21C509,75.62,499.63,67.76,487.59,67.9s-21.06,7.89-22.35,19.25Z" transform="translate(-0.31 -0.22)"/>
    <path class="cls-1" d="M678.52,144.62l11.72-26.79a80.1,80.1,0,0,0,37.84,10.07,75.65,75.65,0,0,0,12.4-1c3.42-.54,6.59-2.26,6.74-6.26.15-4.29-3.38-5.44-6.7-6.06-9.47-1.79-19-3.31-28.48-5a66.61,66.61,0,0,1-7.74-1.88c-12.15-3.73-21-10.76-23.06-24.08s2.15-24.32,13-32.45c9.34-7,20.18-9.91,31.64-10.91a108.31,108.31,0,0,1,48.55,6.31c1.84.7,3.58,1.65,5.88,2.73-4,9-7.83,17.77-11.18,25.37-10.1-2.29-19.47-5-29-6.35a43,43,0,0,0-16.22,1.45,6.17,6.17,0,0,0-3,1.78,6.41,6.41,0,0,0-1.5,4A6.79,6.79,0,0,0,721,79.66a6.5,6.5,0,0,0,3.14,1.83c5.26,1.49,25.21,5,34.15,7.08C774.31,92.4,782.35,101,784,115.15c1.67,14.35-4.84,27.1-19.16,33.44a95.69,95.69,0,0,1-27.69,7.34c-17.4,1.95-34.51-.76-50.89-7.25-1.84-.73-3.62-1.64-5.41-2.53A25.73,25.73,0,0,1,678.52,144.62Z" transform="translate(-0.31 -0.22)"/>
    <path class="cls-2" d="M358.8,154.57c7.59-22.95,15-45.27,22.35-67.62,8-24.46,16-48.92,23.85-73.45,1.22-3.8,2.92-5.08,7-5,11.13.33,22.28.12,33.89.12a22.65,22.65,0,0,1-.53,3.39Q423,81.29,400.65,150.54c-1,3.07-2.3,4.16-5.53,4.11C383.31,154.46,371.49,154.57,358.8,154.57Z" transform="translate(-0.31 -0.22)"/>
    <path class="cls-2" d="M790.67,154.57c0-10.29-.15-19.07.13-27.83.05-1.66,1.5-3.58,2.81-4.87,12-11.75,24.11-23.4,36.18-35.08,1.91-1.84,3.81-3.69,5.83-5.65-14-13.38-27.74-26.67-41.67-39.76a9.36,9.36,0,0,1-3.35-7.75c.2-8,.07-16,.07-25.59L867.6,82.7Z" transform="translate(-0.31 -0.22)"/>
    <path class="cls-2" d="M.31,82.72,77.17,8.15c0,10.29.19,19.52-.17,28.73-.07,1.71-2.14,3.55-3.62,5-13.55,13-27.17,26-40.28,38.48C38,85.61,42.65,91,47.68,96c8.73,8.67,17.79,17,26.46,25.76a11.15,11.15,0,0,1,2.91,6.8c.35,8.13.13,16.28.13,25.93Z" transform="translate(-0.31 -0.22)"/>
  </g>
</svg>
